<svg width="300" height="168" viewBox="0 0 900 500">
<text class="Fussbodenheizung" font-family="sans-serif" font-size="63px" x="485" y="329">-째C</text>
<text class="Aussentemperatur" font-family="sans-serif" font-size="63px" x="5" y="159">-째C</text>
<text class="Warmwasser" font-family="sans-serif" font-size="63px" x="705" y="192">-째C</text>
<text class="Innentemp" font-family="sans-serif" font-size="63px" x="425" y="192">-째C</text>
<text class="Status" font-family="sans-serif" font-size="63px"  x="200" y="480">...</text>

<g fill="none" stroke-width="10">
<path d="M 290,130 L 520,10"/>
<path d="M 350,400 L 350,100"/>
<path d="M 300,400 L 1020,400"/>
</g>

<g fill="none" stroke-width="8">
<path d="M 390,250 L 760,250"/>
<path d="M 440,290 L 470,290"/>
<path d="M 390,370 L 760,370"/>
<path d="M 759,250 C 759,250 759,250 760,250 763,250 766,250 770,252 773,254 775,256 777,260 779,263 780,266 780,270 780,273 779,276 777,280 775,283 773,285 770,287 766,289 763,290 760,290 759,290 759,290 759,290"/>
<path d="M 759,330 C 759,330 759,330 760,330 763,330 766,330 770,332 773,334 775,336 777,340 779,343 780,346 780,350 780,353 779,356 777,360 775,363 773,365 770,367 766,369 763,370 760,370 759,370 759,370 759,370"/>
<path d="M 441,330 C 440,330 440,330 440,330 436,330 433,329 430,327 427,325 424,323 423,320 421,316 420,313 420,310 420,306 421,303 423,300 424,296 427,294 430,292 433,290 436,290 440,290 440,290 440,290 441,290"/>
<path d="M 690,290 L 760,290"/>
<path d="M 440,330 L 470,330"/>
<path d="M 690,330 L 760,330"/>
</g>

<g fill="none" stroke-width="5">
<path d="M 191,45 C 200,45 206,52 206,60 206,69 200,75 191,75 183,75 176,69 176,60 176,52 183,45 191,45 Z"/>
<path d="M 196,45 L 206,25"/>
<path d="M 206,55 L 226,45"/>
<path d="M 206,65 L 226,75"/>
<path d="M 196,75 L 206,95"/>
<path d="M 186,75 L 176,95"/>
<path d="M 94,29 C 97,26 100,23 103,21 106,20 109,18 112,17 115,16 117,14 121,14 124,14 127,14 130,14 133,14 136,16 139,17 142,19 144,23 147,24 150,26 153,28 156,28 159,29 162,31 165,32 167,33 171,33 174,34 177,36 179,38 181,41 182,44 182,47 181,50 179,53 175,54 172,56 169,58 166,60 163,62 160,63 157,62 154,64 152,66 149,67 147,70 146,74 142,75 139,77 136,79 133,80 130,81 127,81 124,81 121,80 118,78 116,78 113,77 110,76 106,75 104,73 101,71 99,67 96,65 92,63 90,62 87,60 84,59 81,58 79,55 77,52 77,49 77,46 77,43 79,40 82,38 84,36 88,35 90,33 L 93,31 95,29 94,29 Z"/>
<path d="M 394,179 L 387,179 387,155 400,155 400,179 394,179 Z"/>
<path d="M 394,176 C 403,176 409,183 409,191 409,200 403,206 394,206 386,206 379,200 379,191 379,183 386,176 394,176 Z"/>
<path d="M 388,136 L 388,179"/>
<path d="M 400,136 L 400,179"/>
<path d="M 388,136 C 388,135 388,134 388,133 389,132 390,131 391,130 392,130 393,130 394,130 395,130 396,130 397,130 398,131 399,132 400,133 400,134 400,135 400,136 400,136 400,136 400,136"/>
<path d="M 400,177 C 401,178 403,178 404,179 406,181 408,183 409,186 410,188 410,191 409,193 409,196 408,198 406,201 405,203 403,204 400,205 397,206 395,206 392,206 389,206 387,205 385,203 383,201 381,199 380,197 379,194 379,192 380,189 380,186 381,184 383,182 384,180 386,178 389,177"/>
<path d="M 831,109 L 739,109 762,87 808,87 831,109 Z"/>
<path d="M 761,109 L 740,130"/>
<path d="M 782,109 L 768,130"/>
<path d="M 831,130 L 810,109"/>
<path d="M 803,130 L 789,109"/>
<path d="M 785,88 L 785,67"/>
<path d="M 785,67 C 785,60 792,60 792,60 L 813,60 820,60"/>
</g>

<g>
<path d="M 394,179 L 387,179 387,155 400,155 400,179 394,179 Z"/>
<path d="M 394,176 C 403,176 409,183 409,191 409,200 403,206 394,206 386,206 379,200 379,191 379,183 386,176 394,176 Z M 379,176 L 379,176 Z M 410,207 L 410,207 Z"/>
</g>
</svg>
