<svg width="300" height="168" viewBox="0 0 900 500">
<text class="Status" font-family="sans-serif" font-size="63px" x="200" y="480">...</text>
<text class="Aussentemp" font-family="sans-serif" font-size="63px" x="5" y="159">-°C</text>
<text class="WPRL" font-family="sans-serif" font-size="63px" x="683" y="365">-°C</text>
<text class="WPVL" font-family="sans-serif" font-size="63px" x="680" y="277">-°C</text>
<text class="QRL" font-family="sans-serif" font-size="63px" x="23" y="365">-°C</text>
<text class="QVL" font-family="sans-serif" font-size="63px" x="20" y="277">-°C</text>

<g fill="none" stroke-width="10">
<path d="M 290,130 L 520,10"/>
<path d="M 350,400 L 350,100"/>
<path d="M 300,400 L 1020,400"/>
</g>

<g fill="none" stroke-width="8">
<path d="M 425,395 L 355,395 355,215 495,215 495,395 425,395 Z"/>
<path d="M 419,259 C 441,259 459,276 459,299 459,321 441,339 419,339 396,339 379,321 379,299 379,276 396,259 419,259 Z"/>
<path d="M 497,252 L 657,252"/>
<path d="M 225,252 L 347,252"/>
<path d="M 497,349 L 657,349"/>
<path d="M 225,349 L 347,349"/>
<path d="M 584,210 C 610,210 629,227 629,250 629,272 610,290 584,290 558,290 538,272 538,250 538,227 558,210 584,210 Z"/>
</g>

<g fill="none">
<path d="M 253,347 L 293,327 293,367 253,347 Z"/>
<path d="M 253,367 L 253,367 Z"/>
<path d="M 293,327 L 293,327 Z"/>
<path d="M 293,251 L 253,231 253,271 293,251 Z"/>
<path d="M 293,271 L 293,271 Z"/>
<path d="M 253,231 L 253,231 Z"/>
<path d="M 624,251 L 564,286 564,216 624,251 Z"/>
<path d="M 624,216 L 624,216 Z"/>
<path d="M 564,286 L 564,286 Z"/>
</g>

<g fill="none" stroke-width="5">
<path d="M 200,45 C 208,45 215,51 215,60 215,68 208,75 200,75 191,75 185,68 185,60 185,51 191,45 200,45 Z"/>
<path d="M 205,45 L 215,25"/>
<path d="M 215,55 L 235,45"/>
<path d="M 215,65 L 235,75"/>
<path d="M 205,75 L 215,95"/>
<path d="M 195,75 L 185,95"/>
<path d="M 103,28 C 106,26 108,22 112,21 114,19 117,18 120,17 123,16 126,13 129,13 132,13 135,13 138,13 142,13 145,15 147,17 151,19 152,22 156,24 158,25 161,27 164,28 167,29 170,30 173,31 176,32 179,33 182,34 185,35 187,38 189,41 191,43 191,47 189,49 188,53 184,54 181,56 178,58 174,59 171,61 169,63 165,62 163,64 160,65 157,67 156,70 154,73 150,74 147,76 144,78 141,80 138,80 135,80 132,80 130,79 127,77 124,77 121,76 118,75 115,74 112,72 109,70 107,67 104,65 101,63 98,61 95,60 92,58 89,57 87,54 86,51 86,48 85,45 85,42 87,40 90,38 93,36 96,35 99,32 L 101,31 103,29 103,28 Z"/>
</g>

<g>
<path d="M 253,347 L 293,327 293,367 253,347 Z M 253,367 L 253,367 Z M 293,327 L 293,327 Z"/>
<path d="M 293,251 L 253,231 253,271 293,251 Z M 293,271 L 293,271 Z M 253,231 L 253,231 Z"/>
<path d="M 624,251 L 564,286 564,216 624,251 Z M 624,216 L 624,216 Z M 564,286 L 564,286 Z"/>
</g>
</svg>
